HIERARCHY
ROOT hip
{
  OFFSET 0 0 0
  CHANNELS 6 Xposition Yposition Zposition Zrotation Yrotation Xrotation
  JOINT abdomen
  {
    OFFSET 0 20.6881 -0.73152
    CHANNELS 3 Zrotation Xrotation Yrotation
    JOINT chest
    {
      OFFSET 0 11.7043 -0.48768
      CHANNELS 3 Zrotation Xrotation Yrotation
      JOINT neck
      {
        OFFSET 0 22.1894 -2.19456
        CHANNELS 3 Zrotation Xrotation Yrotation
        JOINT head
        {
          OFFSET -0.24384 7.07133 1.2192
          CHANNELS 3 Zrotation Xrotation Yrotation
          JOINT leftEye
          {
            OFFSET 4.14528 8.04674 8.04672
            CHANNELS 3 Zrotation Xrotation Yrotation
            End Site
            {
              OFFSET 1 0 0
            }
          }
          JOINT rightEye
          {
            OFFSET -3.6576 8.04674 8.04672
            CHANNELS 3 Zrotation Xrotation Yrotation
            End Site
            {
              OFFSET 1 0 0
            }
          }
        }
      }
      JOINT rCollar
      {
        OFFSET -2.68224 19.2634 -4.8768
        CHANNELS 3 Zrotation Xrotation Yrotation
        JOINT rShldr
        {
          OFFSET -8.77824 -1.95073 1.46304
          CHANNELS 3 Zrotation Xrotation Yrotation
          JOINT rForeArm
          {
            OFFSET -28.1742 -1.7115 0.48768
            CHANNELS 3 Zrotation Xrotation Yrotation
            JOINT rHand
            {
              OFFSET -22.5879 0.773209 7.07136
              CHANNELS 3 Zrotation Xrotation Yrotation
              JOINT rThumb1
              {
                OFFSET -1.2192 -0.487915 3.41376
                CHANNELS 3 Zrotation Xrotation Yrotation
                JOINT rThumb2
                {
                  OFFSET -3.37035 -0.52449 3.41376
                  CHANNELS 3 Zrotation Xrotation Yrotation
                  End Site
                  {
                    OFFSET -1.78271 -1.18214 1.43049
                  }
                }
              }
              JOINT rIndex1
              {
                OFFSET -7.75947 0.938293 5.60832
                CHANNELS 3 Zrotation Xrotation Yrotation
                JOINT rIndex2
                {
                  OFFSET -2.54057 -0.884171 1.56538
                  CHANNELS 3 Zrotation Xrotation Yrotation
                  End Site
                  {
                    OFFSET -1.62519 -0.234802 1.16502
                  }
                }
              }
              JOINT rMid1
              {
                OFFSET -8.24714 1.18213 3.41376
                CHANNELS 3 Zrotation Xrotation Yrotation
                JOINT rMid2
                {
                  OFFSET -3.10165 -0.590103 1.0647
                  CHANNELS 3 Zrotation Xrotation Yrotation
                  End Site
                  {
                    OFFSET -2.48547 -0.328903 0.83742
                  }
                }
              }
              JOINT rRing1
              {
                OFFSET -8.82822 0.546677 1.51678
                CHANNELS 3 Zrotation Xrotation Yrotation
                JOINT rRing2
                {
                  OFFSET -2.60934 -0.819778 -0.0198488
                  CHANNELS 3 Zrotation Xrotation Yrotation
                  End Site
                  {
                    OFFSET -2.33842 -0.294052 0.168128
                  }
                }
              }
              JOINT rPinky1
              {
                OFFSET -8.27202 -0.0477905 -0.4584
                CHANNELS 3 Zrotation Xrotation Yrotation
                JOINT rPinky2
                {
                  OFFSET -1.82734 -0.647385 -0.700984
                  CHANNELS 3 Zrotation Xrotation Yrotation
                  End Site
                  {
                    OFFSET -1.69225 -0.51767 -0.607171
                  }
                }
              }
            }
          }
        }
      }
      JOINT lCollar
      {
        OFFSET 2.68224 19.2634 -4.8768
        CHANNELS 3 Zrotation Xrotation Yrotation
        JOINT lShldr
        {
          OFFSET 8.77824 -1.95073 1.46304
          CHANNELS 3 Zrotation Xrotation Yrotation
          JOINT lForeArm
          {
            OFFSET 28.1742 -1.7115 0.48768
            CHANNELS 3 Zrotation Xrotation Yrotation
            JOINT lHand
            {
              OFFSET 22.5879 0.773209 7.07136
              CHANNELS 3 Zrotation Xrotation Yrotation
              JOINT lThumb1
              {
                OFFSET 1.2192 -0.487915 3.41376
                CHANNELS 3 Zrotation Xrotation Yrotation
                JOINT lThumb2
                {
                  OFFSET 3.37035 -0.52449 3.41376
                  CHANNELS 3 Zrotation Xrotation Yrotation
                  End Site
                  {
                    OFFSET 1.78271 -1.18214 1.43049
                  }
                }
              }
              JOINT lIndex1
              {
                OFFSET 7.75947 0.938293 5.60832
                CHANNELS 3 Zrotation Xrotation Yrotation
                JOINT lIndex2
                {
                  OFFSET 2.54057 -0.884171 1.56538
                  CHANNELS 3 Zrotation Xrotation Yrotation
                  End Site
                  {
                    OFFSET 1.62519 -0.234802 1.16502
                  }
                }
              }
              JOINT lMid1
              {
                OFFSET 8.24714 1.18213 3.41376
                CHANNELS 3 Zrotation Xrotation Yrotation
                JOINT lMid2
                {
                  OFFSET 3.10165 -0.590103 1.0647
                  CHANNELS 3 Zrotation Xrotation Yrotation
                  End Site
                  {
                    OFFSET 2.48547 -0.328903 0.83742
                  }
                }
              }
              JOINT lRing1
              {
                OFFSET 8.82822 0.546677 1.51678
                CHANNELS 3 Zrotation Xrotation Yrotation
                JOINT lRing2
                {
                  OFFSET 2.60934 -0.819778 -0.0198488
                  CHANNELS 3 Zrotation Xrotation Yrotation
                  End Site
                  {
                    OFFSET 2.33842 -0.294052 0.168128
                  }
                }
              }
              JOINT lPinky1
              {
                OFFSET 8.27202 -0.0477905 -0.4584
                CHANNELS 3 Zrotation Xrotation Yrotation
                JOINT lPinky2
                {
                  OFFSET 1.82734 -0.647385 -0.700984
                  CHANNELS 3 Zrotation Xrotation Yrotation
                  End Site
                  {
                    OFFSET 1.69225 -0.51767 -0.607171
                  }
                }
              }
            }
          }
        }
      }
    }
  }
  JOINT rButtock
  {
    OFFSET -8.77824 4.35084 1.2192
    CHANNELS 3 Zrotation Xrotation Yrotation
    JOINT rThigh
    {
      OFFSET 0 -1.70687 -2.19456
      CHANNELS 3 Zrotation Xrotation Yrotation
      JOINT rShin
      {
        OFFSET 0 -36.8199 0.73152
        CHANNELS 3 Zrotation Xrotation Yrotation
        JOINT rFoot
        {
          OFFSET 0.73152 -45.1104 -5.12064
          CHANNELS 3 Zrotation Xrotation Yrotation
          End Site
          {
            OFFSET -1.1221 -3.69964 12.103
          }
        }
      }
    }
  }
  JOINT lButtock
  {
    OFFSET 8.77824 4.35084 1.2192
    CHANNELS 3 Zrotation Xrotation Yrotation
    JOINT lThigh
    {
      OFFSET 0 -1.70687 -2.19456
      CHANNELS 3 Zrotation Xrotation Yrotation
      JOINT lShin
      {
        OFFSET 0 -36.8199 0.73152
        CHANNELS 3 Zrotation Xrotation Yrotation
        JOINT lFoot
        {
          OFFSET -0.73152 -45.1104 -5.12064
          CHANNELS 3 Zrotation Xrotation Yrotation
          End Site
          {
            OFFSET 1.1221 -3.69964 12.103
          }
        }
      }
    }
  }
}
MOTION
Frames:	7
Frame Time:	0.03333
0.0 0.0 0.0 0.0 0.0 0.0 0.0 0.0 0.0 0.0 0.0 0.0 0.0 0.0 0.0 0.0 0.0 0.0 0.0 0.0 0.0 0.0 0.0 0.0 0.0 0.0 0.0 0.0 0.0 0.0 0.0 0.0 0.0 0.0 0.0 0.0 0.0 0.0 0.0 0.0 0.0 0.0 0.0 0.0 0.0 0.0 0.0 0.0 0.0 0.0 0.0 0.0 0.0 0.0 0.0 0.0 0.0 0.0 0.0 0.0 0.0 0.0 0.0 0.0 0.0 0.0 0.0 0.0 0.0 0.0 0.0 0.0 0.0 0.0 0.0 0.0 0.0 0.0 0.0 0.0 0.0 0.0 0.0 0.0 0.0 0.0 0.0 0.0 0.0 0.0 0.0 0.0 0.0 0.0 0.0 0.0 0.0 0.0 0.0 0.0 0.0 0.0 0.0 0.0 0.0 0.0 0.0 0.0 0.0 0.0 0.0 0.0 0.0 0.0 0.0 0.0 0.0 0.0 0.0 0.0 0.0 0.0 0.0 0.0 0.0 0.0 0.0 0.0 0.0 0.0 0.0 0.0
-0.45030000000000003 2.432 3.4484 94.355333 17.867228 -99.528133 47.589016 -11.733173 88.633863 -129.245317 21.865341 -43.631766 174.606494 -54.789834 107.876902 -124.577333 -26.040341 1.887809 -178.656364 -0.752581 -58.505543 121.289005 23.484921 -40.56543 154.979747 15.24061 8.761428 -38.007316 45.155243 -170.262535 174.568575 -47.984809 -76.758309 139.541729 29.579908 24.867868 170.164869 -4.609308 -136.012026 175.47352 33.030387 163.801947 -71.487239 -63.182949 -134.974125 -172.522836 -9.975471 52.988028 141.050883 51.350607 -88.377154 147.868452 -52.682922 -142.951826 -133.96567 14.534315 43.323073 -57.732991 -53.726748 60.152174 17.632146 7.10323 -146.43936 1.363032 -9.320297 -179.926838 -101.270566 -64.161742 83.749877 130.055231 52.791225 8.643228 -9.378578 56.504002 161.819914 -15.59003 -6.594925 134.617779 5.380996 42.910712 -25.983207 -90.225002 -37.968626 178.384885 81.612282 -1.472733 155.373422 116.456848 -75.181778 20.257943 15.140294 -1.772418 119.779114 20.307972 19.457362 95.719192 -80.453662 34.662502 -89.343428 89.128793 -26.39821 167.462328 -153.739662 7.971904 -124.450053 -55.376288 40.045245 134.377593 175.957103 81.785658 161.713196 74.816972 39.120991 136.640089 4.619714 -68.309675 51.013145 126.871297 -34.52539 55.517972 167.887788 -22.945737 -37.983352 61.996038 -33.133058 31.276876 120.162681 -23.33694 -26.669592 147.342791 23.446358 -47.880941
-0.7081999999999999 2.23 5.1794 94.206005 20.872041 -101.857238 28.997035 1.613841 -87.510604 129.225542 -27.411337 125.690738 154.331861 -48.601013 169.144654 -138.919184 26.655912 48.543727 -178.880744 -0.533197 -50.943755 123.54396 21.217878 -38.469305 161.611198 -54.743044 -1.398024 102.009936 -30.858855 -81.059263 -5.047369 1.627426 111.030725 133.662418 43.184538 37.681422 167.362266 -1.037595 -137.893687 169.47799 39.904415 162.002789 -44.788117 84.484598 45.247103 -44.458866 -49.562958 -106.70565 152.255331 58.049129 -97.090905 -50.724505 51.988911 -61.280465 79.957572 -32.626774 152.842884 -71.567228 48.62828 -128.160333 166.584485 40.059228 16.868779 -176.635991 -50.477126 -6.872325 -154.961329 -45.139057 42.704705 -54.158405 -22.714094 157.056701 179.896003 50.95253 56.966494 -162.961373 -3.921958 -10.474786 -11.14147 36.985645 -9.08903 -121.616737 67.352944 -52.988011 -18.458125 -21.276488 99.356845 -142.055978 -17.82597 134.14584 25.210641 1.845485 120.930815 25.060326 27.776082 89.939361 -99.10829 35.630996 -74.887108 -55.498369 -12.338902 36.614583 25.369935 -42.877864 -100.414379 158.125663 -60.512308 -94.210782 98.943192 23.778199 -78.703139 13.45119 7.601267 85.581772 36.33802 -53.891652 151.928595 -64.01727 -23.878225 -96.485958 -112.010242 21.466401 84.637836 -96.521762 -6.411918 -15.458351 120.323459 -36.966727 -121.132697 131.250447 -4.375662 167.978235
-0.9887999999999999 2.0608999999999997 6.9113999999999995 94.86814 23.923909 -103.453898 10.03567 11.252099 85.147076 -124.919707 20.871198 -75.674222 120.409359 -58.516737 -93.911382 129.275568 4.914338 173.367897 178.751332 0.539702 -46.748771 119.952883 20.065258 -34.042227 134.070439 23.836338 12.532666 -32.468218 -9.947958 179.287752 -171.046247 0.738087 -72.02536 132.898732 41.942238 33.840134 -177.023534 1.393581 -136.98834 -14.476615 30.081156 -67.540801 -133.218302 9.576152 157.707972 18.081628 67.23766 32.057755 -22.474619 -41.280652 -115.39025 18.348531 60.370053 84.726521 93.617851 -10.060872 151.687684 -71.00094 42.392106 -106.846179 163.482289 72.854944 29.10428 170.825501 -41.505642 -2.726716 -124.078518 -63.996971 82.723099 -43.005277 9.154018 176.374645 -4.730896 -47.589395 152.986244 -9.063972 7.120925 131.287458 -3.120331 42.650277 -12.590838 -73.57353 53.641007 -116.48276 143.094287 57.513507 154.697716 -172.694258 6.48878 22.65363 -20.49841 -3.935865 112.310003 -166.44495 25.945519 104.370003 115.910495 -72.744965 -75.886533 52.568473 22.877177 -14.639409 -146.599112 1.588667 -123.080873 141.447227 3.803795 8.295231 104.327951 -2.489342 -65.931418 -13.979453 9.819452 169.629322 -57.137606 -5.468757 86.321748 134.600991 -8.956127 134.644542 -171.249729 -36.762597 1.061539 19.755711 -45.63788 -91.672594 152.82344 56.362999 -33.915382 -11.035639 -23.389633 -6.132235
-1.2966 1.9345 8.636800000000001 95.695712 26.388696 -104.261919 4.174382 13.45071 179.878505 148.365742 50.54326 38.652726 118.068501 -67.715853 -44.795665 125.962745 -36.646251 -158.603879 175.68879 1.732176 -43.76328 114.242567 18.992379 -29.017159 110.105303 50.759136 31.215288 83.931294 61.036044 70.126749 -14.955274 -50.212142 95.313705 128.316081 48.471589 42.134179 136.990738 5.857324 -139.013462 -87.206806 -17.981826 -72.614274 -15.02898 -50.569683 -76.060126 -140.626853 23.474133 45.658563 -28.229743 -42.818872 -118.60219 89.712095 47.356111 14.634188 -126.327439 8.968849 34.63829 -134.765992 0.688505 39.617046 42.08244 -44.262349 -113.579927 123.162638 29.220136 95.847007 -120.272858 -65.636122 92.435395 143.578648 45.949725 1.323002 -6.205855 74.986003 156.090202 -8.435187 7.626237 129.022703 -27.378975 26.717001 6.165453 -162.649299 -38.438267 68.869801 -121.366836 56.539864 80.945061 -160.079279 77.726179 40.323829 22.825371 3.288452 122.034702 -175.727097 -15.262766 116.651865 -150.977431 -3.043189 -35.354268 -94.313802 44.30667 98.353661 22.878682 -37.747339 -103.805795 -125.499471 -14.673344 -58.294883 97.618326 10.564632 -81.193427 -5.54602 10.912201 -175.01896 -58.667532 -1.973243 95.253835 108.600908 19.85197 125.857303 138.212797 -10.29056 -62.408146 84.607922 -15.235493 152.476441 -127.435052 -39.968293 -33.287417 164.229055 12.596563 130.730913
-1.6306999999999998 1.8483 10.3552 96.419968 28.095967 -104.59943 0.002333 15.850797 -166.489788 141.309924 43.64434 48.299525 112.037077 -65.219991 -67.979821 121.022979 -21.849902 -170.997879 172.810336 2.711098 -41.278573 108.443872 17.756664 -24.460805 161.265825 -86.788761 4.518822 113.672699 -27.809333 -96.772414 -166.398143 13.724515 33.491944 49.448389 -6.641256 -135.562213 154.068561 5.88814 -138.495311 -68.297581 -6.210317 -75.920381 18.002633 38.205691 -34.583119 -26.511441 14.232092 -52.462697 63.189409 5.563415 -53.787324 176.91666 27.315282 49.667261 113.27471 19.803687 140.499445 -74.11928 45.85316 -74.933085 5.329388 53.176766 -157.240395 23.070266 25.59734 -178.755864 165.350321 1.890055 20.519642 -143.341617 -47.673166 64.86964 10.525714 -75.632849 165.928597 -5.026145 17.729434 128.918264 -40.029731 11.285015 14.285868 -55.734414 -45.569709 -179.420653 -90.485872 30.190841 66.824347 0.873467 -35.867927 174.339426 10.546916 1.544948 120.975991 9.177958 16.332878 102.661629 -79.629973 38.092013 -89.753401 94.357108 -25.485282 159.452755 -137.493358 -4.701568 -123.100251 120.079985 47.163602 9.509333 -157.359859 13.358977 86.197452 82.139641 74.73837 1.252702 7.167538 70.813848 150.604067 133.030611 38.371463 18.289992 -153.320188 -32.527243 30.469175 -17.74041 -43.524487 -45.591977 123.841486 8.42314 88.81625 4.05659 -59.141737 -68.240594
-1.9875 1.7949 12.0709 96.965958 29.097387 -104.73253 -2.917755 21.825586 -4.158424 -163.263765 -48.064887 -161.6619 122.959382 -53.397652 -142.937982 150.672036 44.785602 133.150226 170.496429 3.386414 -39.152488 103.454928 16.492887 -20.817679 -22.859344 -10.742306 159.730409 67.861586 -37.991386 -179.893087 -74.071089 -52.038129 43.299902 93.940192 62.311614 93.436908 159.975301 5.948357 -138.40572 -85.103164 -23.581403 -99.547648 -109.55296 -46.79052 -170.730726 155.13744 -24.033204 36.450286 27.622637 -31.346631 -71.004513 -6.263865 12.604407 108.405961 -110.774355 -18.229186 25.465314 49.702196 12.539319 116.427445 34.200842 -37.191001 -121.393878 7.509165 -32.165728 163.417614 166.830741 -14.411381 24.221664 -101.613093 -55.496053 105.905208 176.533097 61.789545 63.508007 -162.527559 -11.024605 -16.889419 22.171086 55.701037 -32.334567 177.165537 -25.209999 83.296634 -104.722904 44.325887 68.824658 8.118376 -37.534129 -166.767276 14.828394 3.495956 122.124591 34.881848 16.027657 97.394496 62.110835 -68.516743 -124.191485 37.958513 5.85722 -24.125561 -145.683163 -4.853405 -120.014326 140.606907 0.506431 7.70464 95.24537 19.837823 -92.943272 -2.037875 14.738127 -90.824719 -44.65694 63.631863 -89.936917 58.13409 -58.498358 33.667248 -124.699285 28.562456 94.401683 -104.033382 2.060809 -98.459567 127.61664 34.564647 119.409963 172.565724 48.895077 90.687842
